<svg width="154" height="52" viewBox="0 0 154 52" fill="none" xmlns="http://www.w3.org/2000/svg">
<path d="M33.289 33.0926L33.2892 33.0921C33.3612 32.946 33.4333 32.7996 33.5058 32.6539C33.6555 32.3001 33.8347 31.9619 34.0403 31.6425C34.2216 31.361 34.4099 31.0792 34.597 30.7993L34.5979 30.7979C35.6862 29.1695 36.705 27.6214 36.705 25.8898C36.705 24.1583 35.6862 22.6101 34.5979 20.9817L34.5973 20.9808L34.5972 20.9807L33.289 33.0926ZM33.289 33.0926L33.288 33.0946C32.4223 34.8517 31.5914 36.5083 30.0924 37.374C28.5934 38.2397 26.7438 38.1312 24.7898 38.0026L24.789 38.0026C24.5177 37.9847 24.2444 37.9667 23.9738 37.9519C21.4926 37.7598 19.002 38.9702 17.6737 41.2715C15.8306 44.4649 16.9243 48.5483 20.1168 50.3921C20.9487 50.8725 21.842 51.1537 22.7407 51.2499C24.1023 51.3988 25.5223 51.1312 26.7988 50.394C27.9499 49.7292 28.829 48.7722 29.3952 47.6708C29.5482 47.3732 29.6979 47.0694 29.8466 46.7675L29.8475 46.7656C30.7132 45.0085 31.5442 43.3518 33.0432 42.4861C34.5422 41.6204 36.3918 41.7288 38.3458 41.8575C38.5705 41.8722 38.7961 41.8871 39.0205 41.9002C39.2297 41.9199 39.4416 41.93 39.6557 41.93C40.2626 41.93 40.8513 41.8489 41.4111 41.6966C41.9595 41.5485 42.4974 41.3275 43.0117 41.0305C46.2042 39.1867 47.2979 35.1033 45.4548 31.91C45.3077 31.6551 45.1461 31.4134 44.9718 31.1854C44.8861 31.0562 44.7997 30.9269 44.7135 30.7979C43.6252 29.1695 42.6064 27.6214 42.6064 25.8898C42.6064 24.241 43.5319 22.7541 44.5649 21.2044C44.9139 20.8339 45.2255 20.4178 45.4905 19.9586C46.736 17.8007 46.6399 15.2368 45.4633 13.2332C44.3165 11.2136 42.1457 9.84963 39.6557 9.84963C39.1257 9.84963 38.6096 9.9115 38.1145 10.0286C36.2562 10.1486 34.5063 10.2069 33.0789 9.38252C31.5799 8.51679 30.749 6.86018 29.8833 5.10314L29.8831 5.10275L29.8828 5.10202L29.8825 5.10149C29.8144 4.96332 29.7459 4.82417 29.6774 4.6863C29.5671 4.42108 29.4385 4.16012 29.2913 3.90504L28.915 4.1222M33.289 33.0926L28.915 4.1222M28.915 4.1222L29.2913 3.90504C27.4481 0.711601 23.3659 -0.382655 20.1733 1.46116M28.915 4.1222L20.1733 1.46116M20.1733 1.46116C19.6789 1.74671 19.2343 2.08638 18.8431 2.46855M20.1733 1.46116L18.8431 2.46855M18.8431 2.46855C18.4121 2.88805 18.0314 3.37291 17.7165 3.9185C15.8734 7.11186 16.9671 11.1952 20.1596 13.039C21.3107 13.7038 22.5788 13.9869 23.8156 13.9267C24.1498 13.9104 24.4879 13.8882 24.8238 13.8661L24.8254 13.866C26.7794 13.7374 28.6291 13.6289 30.1281 14.4946C31.6271 15.3603 32.458 17.0169 33.3237 18.774C33.4043 18.9375 33.4851 19.1017 33.5664 19.2646C33.6668 19.4876 33.779 19.704 33.9022 19.9131C34.0211 20.1233 34.1517 20.3276 34.2938 20.5251C34.3941 20.6768 34.4957 20.8288 34.597 20.9803L18.8431 2.46855ZM2.23789 21.0692L2.59908 20.8278L2.23789 21.0692C3.32621 22.6976 4.34504 24.2458 4.34504 25.9773C4.34504 27.6254 3.42045 29.1117 2.38796 30.6608C2.03836 31.0316 1.72622 31.4483 1.46084 31.9081C0.217158 34.0629 0.31116 36.6224 1.48293 38.6248C2.62839 40.6494 4.80203 42.0175 7.29573 42.0175C10.9822 42.0175 13.9705 39.0281 13.9705 35.3408C13.9705 34.1083 13.6363 32.9526 13.0532 31.9609C12.9325 31.7468 12.7997 31.5388 12.6549 31.3379C12.5555 31.1876 12.4549 31.0371 12.3547 30.8871L12.3542 30.8864L12.3541 30.8863L12.3536 30.8856L12.3535 30.8855C11.2652 29.2571 10.2464 27.7089 10.2464 25.9773C10.2464 24.2458 11.2652 22.6976 12.3535 21.0692L12.3541 21.0684C12.5413 20.7883 12.7298 20.5063 12.9111 20.2247C13.385 19.4886 13.7185 18.6531 13.8731 17.7562C14.134 16.267 13.8932 14.6802 13.0784 13.2685C11.2352 10.0751 7.15298 8.98081 3.96041 10.8246C2.71251 11.5453 1.78453 12.6092 1.22803 13.8281C0.83815 14.6765 0.62096 15.6204 0.62096 16.6139C0.62096 17.9434 1.00991 19.1834 1.68035 20.2247C1.86154 20.5061 2.04984 20.7878 2.23691 21.0677L2.23789 21.0692ZM8.9607 37.9108C7.48365 38.7639 5.59488 38.2577 4.74202 36.78C3.88911 35.3023 4.39532 33.4128 5.87246 32.5597C7.34951 31.7066 9.23828 32.2128 10.0911 33.6905C10.944 35.1682 10.4378 37.0577 8.9607 37.9108ZM4.53487 18.2984C3.68196 16.8206 4.18817 14.9311 5.66531 14.078C7.14236 13.225 9.03113 13.7312 9.88399 15.2088C10.7369 16.6866 10.2307 18.5761 8.75355 19.4292C7.2765 20.2822 5.38773 19.776 4.53487 18.2984ZM22.2269 4.51319C23.7039 3.66015 25.5927 4.16633 26.4456 5.64399C27.2985 7.12174 26.7923 9.01126 25.3151 9.86435C23.8381 10.7174 21.9493 10.2112 21.0965 8.73355C20.2435 7.25581 20.7498 5.36629 22.2269 4.51319ZM42.3425 15.0642C43.1954 16.542 42.6892 18.4315 41.2121 19.2846C39.735 20.1376 37.8463 19.6314 36.9934 18.1538C36.1405 16.676 36.6467 14.7865 38.1239 13.9334C39.6009 13.0804 41.4897 13.5865 42.3425 15.0642ZM42.5497 33.5459C43.4026 35.0237 42.8964 36.9132 41.4193 37.7663C39.9422 38.6193 38.0534 38.1132 37.2006 36.6355C36.3477 35.1577 36.8539 33.2682 38.331 32.4151C39.8081 31.5621 41.6968 32.0683 42.5497 33.5459ZM24.8577 47.3311C23.3806 48.1842 21.4918 47.678 20.639 46.2003C19.7861 44.7226 20.2923 42.8331 21.7694 41.98C23.2465 41.1269 25.1352 41.6331 25.9881 43.1108C26.841 44.5885 26.3348 46.478 24.8577 47.3311Z" fill="#DB573B" stroke="#DB573B" stroke-width="0.868852"/>
<path d="M64.8977 33.3091C63.2775 33.3091 61.8838 32.9658 60.7166 32.2792C59.5563 31.5858 58.6638 30.6246 58.0391 29.3957C57.4212 28.1668 57.1122 26.7525 57.1122 25.1528C57.1122 23.5325 57.4246 22.1114 58.0494 20.8893C58.681 19.6604 59.5769 18.7026 60.7372 18.0161C61.8975 17.3227 63.2775 16.976 64.8771 16.976C66.2571 16.976 67.4654 17.2266 68.5021 17.7277C69.5388 18.2289 70.3593 18.9326 70.9634 19.8389C71.5676 20.7451 71.9006 21.8093 71.9624 23.0314H67.8224C67.7057 22.2418 67.3968 21.6068 66.8956 21.1262C66.4013 20.6387 65.7525 20.395 64.9492 20.395C64.2695 20.395 63.6757 20.5804 63.1676 20.9511C62.6664 21.315 62.2751 21.8471 61.9936 22.5473C61.7121 23.2476 61.5714 24.0955 61.5714 25.091C61.5714 26.1003 61.7087 26.9584 61.9833 27.6656C62.2648 28.3727 62.6596 28.9117 63.1676 29.2824C63.6757 29.6532 64.2695 29.8385 64.9492 29.8385C65.4504 29.8385 65.9001 29.7356 66.2983 29.5296C66.7034 29.3236 67.0363 29.025 67.2972 28.6336C67.565 28.2354 67.7401 27.7583 67.8224 27.2022H71.9624C71.8937 28.4105 71.5642 29.4747 70.9737 30.3946C70.3902 31.3078 69.5834 32.0218 68.5536 32.5367C67.5238 33.0516 66.3052 33.3091 64.8977 33.3091Z" fill="#DB573B"/>
<path d="M79.1583 23.8552V33.0001H74.7712V11.9092H79.0347V19.9728H79.2201C79.5771 19.0391 80.1538 18.3079 80.9502 17.7792C81.7466 17.2437 82.7455 16.976 83.947 16.976C85.0455 16.976 86.0032 17.2163 86.8202 17.6968C87.6441 18.1706 88.2826 18.8537 88.7357 19.7462C89.1957 20.6319 89.4223 21.6926 89.4154 22.9284V33.0001H85.0283V23.711C85.0352 22.7361 84.788 21.9775 84.2868 21.4351C83.7925 20.8927 83.0991 20.6216 82.2066 20.6216C81.6093 20.6216 81.0806 20.7486 80.6206 21.0026C80.1675 21.2566 79.8105 21.6274 79.5496 22.1148C79.2956 22.5954 79.1652 23.1755 79.1583 23.8552Z" fill="#DB573B"/>
<path d="M97.3785 33.2988C96.3693 33.2988 95.4699 33.1237 94.6804 32.7736C93.8909 32.4165 93.2661 31.8913 92.8061 31.1979C92.353 30.4976 92.1264 29.6257 92.1264 28.5821C92.1264 27.7034 92.2878 26.9653 92.6104 26.368C92.9331 25.7707 93.3725 25.2901 93.9286 24.9262C94.4847 24.5624 95.1164 24.2878 95.8235 24.1024C96.5375 23.917 97.2859 23.7866 98.0685 23.711C98.9885 23.6149 99.73 23.5257 100.293 23.4433C100.856 23.354 101.264 23.2236 101.518 23.052C101.772 22.8803 101.9 22.6263 101.9 22.2899V22.2281C101.9 21.5759 101.694 21.0713 101.282 20.7142C100.877 20.3572 100.3 20.1787 99.5515 20.1787C98.762 20.1787 98.1338 20.3538 97.6669 20.7039C97.2 21.0472 96.8911 21.4798 96.7401 22.0015L92.6825 21.672C92.8885 20.7108 93.2936 19.8801 93.8977 19.1798C94.5019 18.4726 95.2811 17.9303 96.2354 17.5527C97.1966 17.1682 98.3088 16.976 99.5721 16.976C100.451 16.976 101.292 17.0789 102.095 17.2849C102.905 17.4909 103.623 17.8101 104.248 18.2427C104.879 18.6752 105.377 19.2313 105.741 19.911C106.105 20.5838 106.287 21.3905 106.287 22.3311V33.0001H102.126V30.8066H102.002C101.748 31.3009 101.409 31.7369 100.983 32.1145C100.557 32.4852 100.046 32.777 99.4485 32.9898C98.8512 33.1958 98.1612 33.2988 97.3785 33.2988ZM98.6349 30.2711C99.2803 30.2711 99.8501 30.1441 100.344 29.89C100.839 29.6291 101.227 29.279 101.508 28.8396C101.79 28.4002 101.93 27.9025 101.93 27.3463V25.6677C101.793 25.757 101.604 25.8394 101.364 25.9149C101.131 25.9835 100.866 26.0488 100.571 26.1106C100.276 26.1655 99.9806 26.217 99.6854 26.265C99.3901 26.3062 99.1224 26.344 98.8821 26.3783C98.3672 26.4538 97.9175 26.574 97.533 26.7387C97.1486 26.9035 96.8499 27.1266 96.6371 27.4081C96.4242 27.6828 96.3178 28.026 96.3178 28.438C96.3178 29.0353 96.5341 29.4918 96.9666 29.8076C97.406 30.1166 97.9621 30.2711 98.6349 30.2711Z" fill="#DB573B"/>
<path d="M118.104 17.1819V20.4774H108.578V17.1819H118.104ZM110.741 13.3922H115.128V28.1393C115.128 28.5444 115.189 28.8602 115.313 29.0868C115.437 29.3065 115.608 29.4609 115.828 29.5502C116.055 29.6394 116.315 29.6841 116.611 29.6841C116.817 29.6841 117.023 29.6669 117.229 29.6326C117.434 29.5914 117.592 29.5605 117.702 29.5399L118.392 32.8044C118.173 32.8731 117.864 32.9521 117.465 33.0413C117.067 33.1374 116.583 33.1958 116.013 33.2164C114.956 33.2576 114.029 33.1168 113.233 32.7941C112.443 32.4715 111.829 31.9703 111.389 31.2906C110.95 30.6109 110.734 29.7527 110.741 28.716V13.3922Z" fill="#DB573B"/>
<path d="M135.709 17.1819L130.179 33.0001H125.235L119.705 17.1819H124.339L127.625 28.4998H127.789L131.064 17.1819H135.709Z" fill="#DB573B"/>
<path d="M145.708 33.2885C144.171 33.2885 142.801 33.0241 141.599 32.4955C140.405 31.96 139.461 31.2254 138.767 30.2917C138.081 29.3511 137.727 28.2663 137.707 27.0374H142.197C142.224 27.5523 142.392 28.0054 142.701 28.3968C143.017 28.7812 143.436 29.0799 143.958 29.2927C144.48 29.5056 145.067 29.612 145.719 29.612C146.398 29.612 146.999 29.4918 147.521 29.2515C148.043 29.0112 148.451 28.6783 148.746 28.2526C149.042 27.8269 149.189 27.336 149.189 26.7799C149.189 26.217 149.031 25.7192 148.716 25.2867C148.407 24.8473 147.96 24.504 147.377 24.2569C146.8 24.0097 146.114 23.8861 145.317 23.8861H143.35V20.6113H145.317C145.99 20.6113 146.584 20.4945 147.099 20.2611C147.62 20.0277 148.026 19.705 148.314 19.2931C148.602 18.8743 148.746 18.3868 148.746 17.8307C148.746 17.3021 148.619 16.8387 148.365 16.4405C148.118 16.0354 147.768 15.7196 147.315 15.493C146.869 15.2664 146.347 15.1532 145.75 15.1532C145.145 15.1532 144.593 15.263 144.092 15.4827C143.59 15.6955 143.189 16.0011 142.887 16.3993C142.585 16.7975 142.423 17.2643 142.403 17.7998H138.129C138.15 16.5846 138.496 15.5136 139.169 14.5868C139.842 13.6599 140.748 12.9356 141.888 12.4138C143.034 11.8852 144.328 11.6208 145.77 11.6208C147.226 11.6208 148.499 11.8852 149.591 12.4138C150.683 12.9425 151.53 13.6565 152.135 14.5559C152.746 15.4484 153.048 16.4508 153.041 17.563C153.048 18.7438 152.68 19.729 151.939 20.5186C151.204 21.3081 150.247 21.8093 149.066 22.0221V22.1869C150.617 22.386 151.798 22.9249 152.608 23.8037C153.425 24.6757 153.83 25.7673 153.824 27.0786C153.83 28.2801 153.484 29.3477 152.783 30.2814C152.09 31.2151 151.132 31.9497 149.91 32.4852C148.688 33.0207 147.288 33.2885 145.708 33.2885Z" fill="#DB573B"/>
</svg>
