<svg width="46" height="50" viewBox="0 0 46 50" fill="none" xmlns="http://www.w3.org/2000/svg">
<path d="M11.9445 29.7644L11.9447 29.7647L11.9451 29.7652L11.9452 29.7655L11.9445 29.7644ZM11.9445 29.7644C10.896 28.1956 9.91853 26.7092 9.91853 25.0479C9.91853 23.3866 10.896 21.9002 11.9445 20.3314L11.9449 20.3308C12.1252 20.0611 12.3068 19.7894 12.4815 19.5181C12.9389 18.8076 13.2608 18.0011 13.41 17.1355C13.6619 15.6981 13.4294 14.1665 12.643 12.8039C10.8639 9.72157 6.92367 8.66538 3.84216 10.445M11.9445 29.7644L3.84216 10.445M33.3343 20.2472L33.3337 20.2463C33.3336 20.2461 33.3334 20.2459 33.3333 20.2457C33.2359 20.1 33.1382 19.9538 33.0416 19.8077C32.9046 19.6173 32.7786 19.4203 32.664 19.2176C32.5451 19.0158 32.4368 18.807 32.34 18.5919C32.2619 18.4354 32.1843 18.2778 32.1069 18.1208L32.1064 18.1197C31.2725 16.427 30.4744 14.8371 29.0362 14.0064C27.598 13.1758 25.8224 13.2795 23.9399 13.4034L23.9385 13.4035C23.6151 13.4247 23.2894 13.4462 22.9674 13.4618C21.7736 13.5199 20.5497 13.2467 19.4386 12.605C16.3572 10.8254 15.3015 6.88408 17.0805 3.80182C17.3843 3.27547 17.7515 2.80766 18.1673 2.40288C18.545 2.03377 18.9743 1.70574 19.4518 1.43C22.5333 -0.349671 26.4735 0.70652 28.2526 3.78886L27.8763 4.00602L28.2526 3.78886C28.3946 4.0349 28.5186 4.2866 28.625 4.54241C28.6905 4.67429 28.7561 4.80737 28.8212 4.93951L28.8225 4.94224L28.823 4.94315L28.8231 4.94332C29.657 6.63604 30.4551 8.22599 31.8933 9.0566C33.2624 9.8473 34.9417 9.79214 36.731 9.67661C37.2086 9.56377 37.7063 9.50416 38.2173 9.50416C40.6206 9.50416 42.7159 10.8207 43.8228 12.7699C44.9584 14.7038 45.0511 17.1784 43.849 19.2612C43.5935 19.704 43.293 20.1053 42.9565 20.4626C41.9618 21.955 41.0744 23.3822 41.0744 24.9637C41.0744 26.625 42.0519 28.1114 43.1004 29.6802C43.1832 29.8042 43.2664 29.9285 43.3488 30.0528C43.5169 30.2727 43.6727 30.5059 43.8146 30.7517C45.5936 33.834 44.5379 37.7753 41.4565 39.5549C40.9602 39.8416 40.4409 40.0549 39.9116 40.1979C39.9114 40.198 39.9111 40.198 39.9109 40.1981L39.7976 39.7787C39.2941 39.9157 38.7642 39.9888 38.2173 39.9888L33.3343 20.2472ZM33.3343 20.2472C34.3828 21.816 35.3603 23.3024 35.3603 24.9637C35.3603 26.625 34.3828 28.1114 33.3343 29.6802L33.3335 29.6814C33.1533 29.9509 32.9719 30.2224 32.7973 30.4935C32.5989 30.8017 32.426 31.1279 32.2816 31.4693C32.2119 31.6094 32.1424 31.7503 32.0732 31.8908L32.073 31.8913L32.072 31.8932L33.3343 20.2472ZM3.84216 10.445C2.6377 11.1407 1.74199 12.1676 1.20485 13.3441M3.84216 10.445L1.20485 13.3441M1.20485 13.3441C0.828524 14.163 0.618899 15.074 0.618899 16.0329C0.618899 17.3161 0.994319 18.513 1.64145 19.5181C1.81597 19.7891 1.99733 20.0605 2.17741 20.3299L2.17839 20.3314C3.22687 21.9002 4.2044 23.3866 4.2044 25.0479C4.2044 26.6287 3.31778 28.0553 2.32362 29.547C1.98655 29.9046 1.68559 30.3065 1.42969 30.7499C0.229289 32.8297 0.320023 35.3002 1.45095 37.2329C2.55655 39.1869 4.65454 40.5074 7.06147 40.5074C10.6197 40.5074 13.504 37.622 13.504 34.063C13.504 32.8735 13.1815 31.758 12.6188 30.8008C12.5023 30.5943 12.3742 30.3936 12.2345 30.1999C12.1388 30.0551 12.0418 29.91 11.9453 29.7656L1.20485 13.3441ZM36.9551 40.3533C37.1713 40.3675 37.3885 40.3818 37.6045 40.3944L32.0718 31.8938C31.2379 33.5863 30.4398 35.176 29.0018 36.0065C27.5636 36.8371 25.7881 36.7335 23.9057 36.6096L23.9046 36.6095C23.6435 36.5924 23.3805 36.575 23.1201 36.5608C20.7252 36.3755 18.3213 37.5437 17.0393 39.7649C15.2603 42.8472 16.316 46.7885 19.3974 48.5682C20.2002 49.0318 21.0624 49.3033 21.9298 49.3961C23.2441 49.5399 24.6148 49.2816 25.8469 48.57C26.9579 47.9283 27.8064 47.0046 28.353 45.9415C28.5003 45.6549 28.6445 45.3623 28.7877 45.0717L28.7886 45.0698C29.6226 43.377 30.4207 41.787 31.8589 40.9564C33.2971 40.1258 35.0726 40.2294 36.9551 40.3533ZM8.6564 36.5234C7.24204 37.3402 5.43344 36.8555 4.61678 35.4406C3.80007 34.0255 4.2848 32.2162 5.69924 31.3993C7.11359 30.5825 8.92219 31.0672 9.73885 32.4821C10.5556 33.8971 10.0708 35.7065 8.6564 36.5234ZM4.41734 17.6466C3.60063 16.2316 4.08536 14.4223 5.49979 13.6054C6.91415 12.7885 8.72275 13.2732 9.53941 14.6882C10.3561 16.1032 9.8714 17.9125 8.45696 18.7294C7.0426 19.5463 5.234 19.0616 4.41734 17.6466ZM21.4451 4.39646C22.8595 3.57963 24.6681 4.06432 25.4847 5.47927C26.3014 6.8943 25.8167 8.70362 24.4023 9.52051C22.9879 10.3373 21.1793 9.85265 20.3627 8.4377C19.5459 7.02268 20.0307 5.21335 21.4451 4.39646ZM40.7902 14.549C41.6069 15.964 41.1221 17.7733 39.7077 18.5902C38.2934 19.407 36.4848 18.9223 35.6681 17.5074C34.8514 16.0924 35.3361 14.283 36.7505 13.4662C38.1649 12.6493 39.9735 13.134 40.7902 14.549ZM40.9896 32.343C41.8063 33.758 41.3216 35.5673 39.9072 36.3842C38.4928 37.201 36.6842 36.7163 35.8675 35.3014C35.0508 33.8864 35.5355 32.077 36.95 31.2602C38.3643 30.4433 40.1729 30.928 40.9896 32.343ZM23.9618 45.5931C22.5475 46.41 20.7389 45.9253 19.9222 44.5103C19.1055 43.0953 19.5902 41.286 21.0047 40.4691C22.419 39.6522 24.2276 40.1369 25.0443 41.5519C25.861 42.9669 25.3763 44.7762 23.9618 45.5931Z" fill="#DB573B" stroke="#DB573B" stroke-width="0.868852"/>
</svg>
