<svg width="185" height="56" viewBox="0 0 185 56" fill="none" xmlns="http://www.w3.org/2000/svg">
<path fill-rule="evenodd" clip-rule="evenodd" d="M21.4846 14.4142C17.7904 12.2812 16.5247 7.55749 18.6576 3.86315C20.7904 0.16894 25.5143 -1.09681 29.2085 1.03613C30.7847 1.94604 31.9187 3.32763 32.5354 4.89953C33.223 6.65234 34.0829 8.46923 35.7134 9.41064C37.3439 10.352 39.3473 10.1882 41.209 9.90734C42.8788 9.65551 44.6422 9.94677 46.2183 10.8568C49.9125 12.9896 51.1783 17.7135 49.0454 21.4077C48.8812 21.6921 48.7017 21.9623 48.5083 22.2174C47.3049 23.8063 46.0801 25.5529 46.0801 27.5459C46.0801 29.5391 47.3049 31.2856 48.5083 32.8745C48.7017 33.1298 48.8812 33.3998 49.0454 33.6842C51.1783 37.3784 49.9125 42.1023 46.2183 44.2351C44.6422 45.1451 42.8788 45.4364 41.209 45.1846C39.3473 44.9037 37.3439 44.7399 35.7134 45.6813C34.0829 46.6227 33.223 48.4396 32.5354 50.1924C31.9187 51.7643 30.7845 53.1459 29.2085 54.0558C25.5143 56.1887 20.7904 54.923 18.6576 51.2288C16.5247 47.5344 17.7904 42.8107 21.4846 40.6777C23.0607 39.7678 24.8241 39.4764 26.4939 39.7283C28.3556 40.0092 30.359 40.173 31.9895 39.2316C32.4345 38.9747 32.8221 38.6525 33.1645 38.2843C35.0226 36.2858 36.0813 33.6557 37.3532 31.2414C38.0625 29.8951 38.6259 28.5058 38.6327 27.5459C38.6259 26.586 38.0625 25.1968 37.3532 23.8505C36.0813 21.4362 35.0226 18.8061 33.1645 16.8076C32.8221 16.4394 32.4345 16.1173 31.9895 15.8603C30.359 14.9189 28.3556 15.0828 26.4939 15.3636C24.8241 15.6155 23.0607 15.3241 21.4846 14.4142ZM22.1217 5.86315C21.0934 7.64428 21.7036 9.92175 23.4846 10.9501C25.2657 11.9784 27.5432 11.3682 28.5715 9.58703C29.5999 7.80602 28.9896 5.52844 27.2085 4.50024C25.4274 3.47192 23.1499 4.08215 22.1217 5.86315ZM40.4944 20.7707C38.7134 19.7424 38.1031 17.465 39.1315 15.6838C40.1597 13.9028 42.4371 13.2926 44.2183 14.3209C45.9994 15.3491 46.6096 17.6267 45.5813 19.4077C44.553 21.1888 42.2755 21.7991 40.4944 20.7707ZM39.1315 39.4081C38.1031 37.6269 38.7134 35.3495 40.4944 34.3212C42.2755 33.2928 44.553 33.9031 45.5813 35.6842C46.6096 37.4653 45.9994 39.7428 44.2183 40.771C42.4371 41.7993 40.1597 41.1891 39.1315 39.4081ZM23.4846 44.1418C21.7036 45.1702 21.0934 47.4476 22.1217 49.2288C23.1499 51.0098 25.4274 51.62 27.2085 50.5917C28.9896 49.5635 29.5999 47.2859 28.5715 45.5049C27.5432 43.7238 25.2657 43.1135 23.4846 44.1418Z" fill="#DB573B"/>
<path fill-rule="evenodd" clip-rule="evenodd" d="M13.7653 22.6C12.5912 24.0719 11.4476 25.725 11.4476 27.6078C11.4476 29.4906 12.5912 31.1437 13.7653 32.6156C14.8182 33.9357 15.4476 35.6085 15.4476 37.4285C15.4476 41.6942 11.9896 45.1522 7.72388 45.1522C3.45813 45.1522 0 41.6942 0 37.4285C0 35.6085 0.629395 33.9357 1.68237 32.6156C2.85657 31.1437 4.00012 29.4906 4.00012 27.6078C4.00012 25.725 2.85657 24.0719 1.68237 22.6001C0.629395 21.2799 0 19.607 0 17.7872C0 13.5215 3.45813 10.0633 7.72388 10.0633C11.9896 10.0633 15.4476 13.5215 15.4476 17.7872C15.4476 19.607 14.8182 21.2799 13.7653 22.6ZM11.4476 17.7872C11.4476 19.8439 9.78052 21.511 7.72388 21.511C5.66724 21.511 4 19.8439 4 17.7872C4 15.7306 5.66724 14.0633 7.72388 14.0633C9.78052 14.0633 11.4476 15.7306 11.4476 17.7872ZM11.4476 37.4285C11.4476 39.4851 9.78052 41.1522 7.72388 41.1522C5.66724 41.1522 4 39.4851 4 37.4285C4 35.3718 5.66724 33.7046 7.72388 33.7046C9.78052 33.7046 11.4476 35.3718 11.4476 37.4285Z" fill="#DB573B"/>
<path d="M71.7702 37.8854C70.2897 37.8854 68.8977 37.5934 67.5945 37.0096C66.2912 36.4153 65.1443 35.5968 64.1538 34.5542C63.1737 33.5116 62.4022 32.3073 61.8392 30.9415C61.2866 29.5652 61.0103 28.0951 61.0103 26.5312C61.0103 24.9568 61.2866 23.4867 61.8392 22.1209C62.4022 20.7446 63.1737 19.5404 64.1538 18.5082C65.1443 17.4656 66.2912 16.6523 67.5945 16.0685C68.8977 15.4742 70.2897 15.177 71.7702 15.177C73.5426 15.177 75.1743 15.5889 76.6653 16.4125C78.1562 17.2258 79.3918 18.3153 80.3718 19.6812L76.5245 21.7612C75.9407 21.0731 75.2369 20.5257 74.4132 20.1191C73.5896 19.702 72.7085 19.4935 71.7702 19.4935C70.8839 19.4935 70.0498 19.676 69.2679 20.0409C68.4859 20.4058 67.7978 20.9115 67.2035 21.5579C66.6196 22.2043 66.1609 22.9498 65.8272 23.7943C65.4936 24.6388 65.3268 25.5511 65.3268 26.5312C65.3268 27.5008 65.4936 28.4131 65.8272 29.2681C66.1609 30.1126 66.6196 30.8581 67.2035 31.5045C67.7978 32.1405 68.4859 32.6462 69.2679 33.0215C70.0498 33.3864 70.8839 33.5689 71.7702 33.5689C72.719 33.5689 73.6 33.3604 74.4132 32.9433C75.2369 32.5263 75.9407 31.9737 76.5245 31.2856L80.3718 33.3812C79.3918 34.7366 78.1562 35.8262 76.6653 36.6499C75.1743 37.4735 73.5426 37.8854 71.7702 37.8854ZM98.8956 29.5183V37.4787H94.5792V29.5809C94.5792 28.8406 94.428 28.1681 94.1256 27.5634C93.8337 26.9587 93.4323 26.4791 92.9214 26.1246C92.4105 25.7597 91.8475 25.5772 91.2324 25.5772C90.513 25.5772 89.9239 25.7597 89.4651 26.1246C89.0168 26.4791 88.6884 26.9587 88.4798 27.5634C88.2713 28.1681 88.1671 28.8406 88.1671 29.5809V37.4787H83.8193V14.0197H88.1358V23.028C88.4798 22.3294 88.949 21.8915 89.5433 21.7143C90.148 21.5266 90.8622 21.4328 91.6859 21.4328C93.156 21.4328 94.4228 21.7977 95.4863 22.5275C96.5602 23.2574 97.3891 24.2374 97.9729 25.4677C98.5672 26.6876 98.8748 28.0378 98.8956 29.5183ZM113.095 21.8394H117.412V37.4787H113.08L112.892 35.8523C112.485 36.457 111.964 36.947 111.328 37.3224C110.692 37.6977 109.947 37.8854 109.092 37.8854C107.924 37.8854 106.829 37.6664 105.807 37.2285C104.796 36.7906 103.905 36.1859 103.133 35.4144C102.372 34.6428 101.773 33.7514 101.335 32.74C100.907 31.7183 100.693 30.6235 100.693 29.4558C100.693 28.3402 100.897 27.2975 101.303 26.3279C101.71 25.3583 102.283 24.5033 103.024 23.763C103.764 23.0228 104.614 22.4441 105.573 22.0271C106.543 21.61 107.58 21.4015 108.685 21.4015C109.644 21.4015 110.51 21.6048 111.281 22.0114C112.053 22.4181 112.725 22.9342 113.299 23.5597L113.095 21.8394ZM109.217 33.7409C109.957 33.7409 110.609 33.5481 111.172 33.1623C111.735 32.7661 112.162 32.2448 112.454 31.5984C112.746 30.9519 112.845 30.2377 112.751 29.4558C112.668 28.7364 112.433 28.0847 112.048 27.5008C111.662 26.9065 111.172 26.4374 110.577 26.0933C109.994 25.7492 109.363 25.5772 108.685 25.5772C107.945 25.5772 107.288 25.7701 106.715 26.1559C106.141 26.5416 105.703 27.0577 105.401 27.7042C105.099 28.3506 104.984 29.07 105.057 29.8624C105.151 30.5714 105.396 31.223 105.792 31.8173C106.198 32.4012 106.699 32.8704 107.293 33.2248C107.898 33.5689 108.539 33.7409 109.217 33.7409ZM129.684 26.1559H126.869V37.4787H122.553V26.1559H120.395V21.8394H122.553V16.9286H126.869V21.8394H129.684V26.1559ZM146.404 37.4787L138.459 15.5837H143.042L149.188 32.4898L155.334 15.5837H159.901L151.956 37.4787H146.404ZM163.015 37.8854C162.41 37.8854 161.894 37.6768 161.466 37.2598C161.049 36.8323 160.841 36.311 160.841 35.6959C160.841 35.1016 161.049 34.5907 161.466 34.1632C161.894 33.7357 162.41 33.522 163.015 33.522C163.619 33.522 164.135 33.7357 164.563 34.1632C164.99 34.5907 165.204 35.1016 165.204 35.6959C165.204 36.311 164.99 36.8323 164.563 37.2598C164.135 37.6768 163.619 37.8854 163.015 37.8854ZM175.159 37.8854C173.845 37.8854 172.646 37.5674 171.562 36.9314C170.477 36.2954 169.612 35.4404 168.966 34.3665C168.33 33.2822 168.012 32.0832 168.012 30.7695H172.328C172.328 31.2699 172.453 31.7339 172.703 32.1614C172.954 32.5888 173.292 32.9329 173.72 33.1936C174.147 33.4438 174.627 33.5689 175.159 33.5689C175.67 33.5689 176.139 33.4438 176.566 33.1936C177.004 32.9329 177.353 32.5888 177.614 32.1614C177.875 31.7339 178.005 31.2699 178.005 30.7695C178.005 30.0813 177.817 29.5079 177.442 29.0491C177.067 28.5904 176.54 28.2463 175.862 28.0169C175.185 27.7876 174.392 27.6729 173.485 27.6729V24.373C174.695 24.373 175.649 24.1592 176.347 23.7318C177.046 23.2939 177.395 22.6474 177.395 21.7925C177.395 21.365 177.291 20.9792 177.082 20.6352C176.874 20.2807 176.592 19.9992 176.238 19.7906C175.883 19.5717 175.492 19.4622 175.065 19.4622C174.637 19.4622 174.215 19.5717 173.798 19.7906C173.381 19.9992 173.037 20.2807 172.766 20.6352C172.505 20.9792 172.375 21.365 172.375 21.7925H168.058C168.058 20.875 168.246 20.0148 168.621 19.212C168.997 18.4092 169.508 17.7054 170.154 17.1007C170.811 16.4855 171.556 16.0059 172.391 15.6619C173.225 15.3178 174.1 15.1458 175.018 15.1458C176.217 15.1458 177.322 15.4429 178.333 16.0372C179.355 16.6315 180.174 17.4343 180.789 18.4457C181.404 19.4466 181.712 20.5622 181.712 21.7925C181.712 22.5744 181.534 23.3616 181.18 24.154C180.836 24.9464 180.33 25.5146 179.663 25.8587C180.247 26.0777 180.732 26.453 181.117 26.9847C181.513 27.5061 181.811 28.1056 182.009 28.7833C182.217 29.4505 182.322 30.1126 182.322 30.7695C182.322 32.0727 181.998 33.2665 181.352 34.3509C180.705 35.4248 179.84 36.2849 178.756 36.9314C177.671 37.5674 176.472 37.8854 175.159 37.8854Z" fill="#DB573B"/>
</svg>
