<svg width="176" height="52" viewBox="0 0 176 52" fill="none" xmlns="http://www.w3.org/2000/svg">
<path d="M33.289 33.0926L33.2892 33.0921C33.3612 32.946 33.4333 32.7996 33.5058 32.6539C33.6555 32.3001 33.8347 31.9619 34.0403 31.6425C34.2216 31.361 34.4099 31.0792 34.597 30.7993L34.5979 30.7979C35.6862 29.1695 36.705 27.6214 36.705 25.8898C36.705 24.1583 35.6862 22.6101 34.5979 20.9817L34.5973 20.9808L34.5972 20.9807L33.289 33.0926ZM33.289 33.0926L33.288 33.0946C32.4223 34.8517 31.5914 36.5083 30.0924 37.374C28.5934 38.2397 26.7438 38.1312 24.7898 38.0026L24.789 38.0026C24.5177 37.9847 24.2444 37.9667 23.9738 37.9519C21.4926 37.7598 19.002 38.9702 17.6737 41.2715C15.8306 44.4649 16.9243 48.5483 20.1168 50.3921C20.9487 50.8725 21.842 51.1537 22.7407 51.2499C24.1023 51.3988 25.5223 51.1312 26.7988 50.394C27.9499 49.7292 28.829 48.7722 29.3952 47.6708C29.5482 47.3732 29.6979 47.0694 29.8466 46.7675L29.8475 46.7656C30.7132 45.0085 31.5442 43.3518 33.0432 42.4861C34.5422 41.6204 36.3918 41.7288 38.3458 41.8575C38.5705 41.8722 38.7961 41.8871 39.0205 41.9002C39.2297 41.9199 39.4416 41.93 39.6557 41.93C40.2626 41.93 40.8513 41.8489 41.4111 41.6966C41.9595 41.5485 42.4974 41.3275 43.0117 41.0305C46.2042 39.1867 47.2979 35.1033 45.4548 31.91C45.3077 31.6551 45.1461 31.4134 44.9718 31.1854C44.8861 31.0562 44.7997 30.9269 44.7135 30.7979C43.6252 29.1695 42.6064 27.6214 42.6064 25.8898C42.6064 24.241 43.5319 22.7541 44.5649 21.2044C44.9139 20.8339 45.2255 20.4178 45.4905 19.9586C46.736 17.8007 46.6399 15.2368 45.4633 13.2332C44.3165 11.2136 42.1457 9.84963 39.6557 9.84963C39.1257 9.84963 38.6096 9.9115 38.1145 10.0286C36.2562 10.1486 34.5063 10.2069 33.0789 9.38252C31.5799 8.51679 30.749 6.86018 29.8833 5.10314L29.8831 5.10275L29.8828 5.10202L29.8825 5.10149C29.8144 4.96332 29.7459 4.82417 29.6774 4.6863C29.5671 4.42108 29.4385 4.16012 29.2913 3.90504L28.915 4.1222M33.289 33.0926L28.915 4.1222M28.915 4.1222L29.2913 3.90504C27.4481 0.711601 23.3659 -0.382655 20.1733 1.46116M28.915 4.1222L20.1733 1.46116M20.1733 1.46116C19.6789 1.74671 19.2343 2.08638 18.8431 2.46855M20.1733 1.46116L18.8431 2.46855M18.8431 2.46855C18.4121 2.88805 18.0314 3.37291 17.7165 3.9185C15.8734 7.11186 16.9671 11.1952 20.1596 13.039C21.3107 13.7038 22.5788 13.9869 23.8156 13.9267C24.1498 13.9104 24.4879 13.8882 24.8238 13.8661L24.8254 13.866C26.7794 13.7374 28.6291 13.6289 30.1281 14.4946C31.6271 15.3603 32.458 17.0169 33.3237 18.774C33.4043 18.9375 33.4851 19.1017 33.5664 19.2646C33.6668 19.4876 33.779 19.704 33.9022 19.9131C34.0211 20.1233 34.1517 20.3276 34.2938 20.5251C34.3941 20.6768 34.4957 20.8288 34.597 20.9803L18.8431 2.46855ZM2.23789 21.0692L2.59908 20.8278L2.23789 21.0692C3.32621 22.6976 4.34504 24.2458 4.34504 25.9773C4.34504 27.6254 3.42045 29.1117 2.38796 30.6608C2.03836 31.0316 1.72622 31.4483 1.46084 31.9081C0.217158 34.0629 0.31116 36.6224 1.48293 38.6248C2.62839 40.6494 4.80203 42.0175 7.29573 42.0175C10.9822 42.0175 13.9705 39.0281 13.9705 35.3408C13.9705 34.1083 13.6363 32.9526 13.0532 31.9609C12.9325 31.7468 12.7997 31.5388 12.6549 31.3379C12.5555 31.1876 12.4549 31.0371 12.3547 30.8871L12.3542 30.8864L12.3541 30.8863L12.3536 30.8856L12.3535 30.8855C11.2652 29.2571 10.2464 27.7089 10.2464 25.9773C10.2464 24.2458 11.2652 22.6976 12.3535 21.0692L12.3541 21.0684C12.5413 20.7883 12.7298 20.5063 12.9111 20.2247C13.385 19.4886 13.7185 18.6531 13.8731 17.7562C14.134 16.267 13.8932 14.6802 13.0784 13.2685C11.2352 10.0751 7.15298 8.98081 3.96041 10.8246C2.71251 11.5453 1.78453 12.6092 1.22803 13.8281C0.83815 14.6765 0.62096 15.6204 0.62096 16.6139C0.62096 17.9434 1.00991 19.1834 1.68035 20.2247C1.86154 20.5061 2.04984 20.7878 2.23691 21.0677L2.23789 21.0692ZM8.9607 37.9108C7.48365 38.7639 5.59488 38.2577 4.74202 36.78C3.88911 35.3023 4.39532 33.4128 5.87246 32.5597C7.34951 31.7066 9.23828 32.2128 10.0911 33.6905C10.944 35.1682 10.4378 37.0577 8.9607 37.9108ZM4.53487 18.2984C3.68196 16.8206 4.18817 14.9311 5.66531 14.078C7.14236 13.225 9.03113 13.7312 9.88399 15.2088C10.7369 16.6866 10.2307 18.5761 8.75355 19.4292C7.2765 20.2822 5.38773 19.776 4.53487 18.2984ZM22.2269 4.51319C23.7039 3.66015 25.5927 4.16633 26.4456 5.64399C27.2985 7.12174 26.7923 9.01126 25.3151 9.86435C23.8381 10.7174 21.9493 10.2112 21.0965 8.73355C20.2435 7.25581 20.7498 5.36629 22.2269 4.51319ZM42.3425 15.0642C43.1954 16.542 42.6892 18.4315 41.2121 19.2846C39.735 20.1376 37.8463 19.6314 36.9934 18.1538C36.1405 16.676 36.6467 14.7865 38.1239 13.9334C39.6009 13.0804 41.4897 13.5865 42.3425 15.0642ZM42.5497 33.5459C43.4026 35.0237 42.8964 36.9132 41.4193 37.7663C39.9422 38.6193 38.0534 38.1132 37.2006 36.6355C36.3477 35.1577 36.8539 33.2682 38.331 32.4151C39.8081 31.5621 41.6968 32.0683 42.5497 33.5459ZM24.8577 47.3311C23.3806 48.1842 21.4918 47.678 20.639 46.2003C19.7861 44.7226 20.2923 42.8331 21.7694 41.98C23.2465 41.1269 25.1352 41.6331 25.9881 43.1108C26.841 44.5885 26.3348 46.478 24.8577 47.3311Z" fill="#DB573B" stroke="#DB573B" stroke-width="0.868852"/>
<path d="M71.6063 10.9463H75.6666V33.0133H71.6063V31.4539C71.1551 32.0228 70.5961 32.4886 69.9292 32.8515C69.2623 33.2144 68.5022 33.3958 67.6489 33.3958C66.5799 33.3958 65.5795 33.1948 64.6478 32.7926C63.7161 32.3905 62.8922 31.8364 62.1763 31.1303C61.4701 30.4143 60.916 29.5905 60.5139 28.6588C60.1118 27.727 59.9107 26.7267 59.9107 25.6576C59.9107 24.5886 60.1118 23.5882 60.5139 22.6565C60.916 21.7248 61.4701 20.9059 62.1763 20.1997C62.8922 19.4838 63.7161 18.9247 64.6478 18.5226C65.5795 18.1205 66.5799 17.9195 67.6489 17.9195C68.5022 17.9195 69.2623 18.1009 69.9292 18.4638C70.5961 18.8169 71.1551 19.2827 71.6063 19.8614V10.9463ZM67.7078 29.4973C68.3747 29.4973 68.9778 29.3257 69.5172 28.9824C70.0567 28.6391 70.4833 28.1782 70.7971 27.5995C71.111 27.0111 71.2679 26.3638 71.2679 25.6576C71.2679 24.9417 71.111 24.2944 70.7971 23.7157C70.4833 23.1371 70.0567 22.6761 69.5172 22.3329C68.9778 21.9896 68.3747 21.818 67.7078 21.818C67.0408 21.818 66.4328 21.9896 65.8835 22.3329C65.3343 22.6761 64.893 23.142 64.5595 23.7305C64.2359 24.3091 64.074 24.9515 64.074 25.6576C64.074 26.3638 64.2359 27.0111 64.5595 27.5995C64.893 28.1782 65.3343 28.6391 65.8835 28.9824C66.4328 29.3257 67.0408 29.4973 67.7078 29.4973Z" fill="#DB573B"/>
<path d="M88.2202 33.3958C86.8275 33.3958 85.5182 33.1212 84.2923 32.572C83.0663 32.0129 81.9875 31.243 81.0558 30.2623C80.1339 29.2815 79.4081 28.1488 78.8785 26.864C78.3587 25.5694 78.0988 24.1865 78.0988 22.7154C78.0988 21.2344 78.3587 19.8516 78.8785 18.5668C79.4081 17.2722 80.1339 16.1394 81.0558 15.1684C81.9875 14.1877 83.0663 13.4227 84.2923 12.8735C85.5182 12.3144 86.8275 12.0349 88.2202 12.0349C89.8875 12.0349 91.4224 12.4223 92.8248 13.1971C94.2273 13.9621 95.3895 14.987 96.3114 16.2718L92.6924 18.2284C92.1432 17.5811 91.4812 17.0662 90.7064 16.6837C89.9316 16.2914 89.1029 16.0953 88.2202 16.0953C87.3866 16.0953 86.6019 16.2669 85.8664 16.6102C85.1308 16.9534 84.4835 17.4291 83.9245 18.0372C83.3753 18.6452 82.9437 19.3465 82.6299 20.1409C82.316 20.9353 82.1591 21.7935 82.1591 22.7154C82.1591 23.6275 82.316 24.4856 82.6299 25.2899C82.9437 26.0843 83.3753 26.7855 83.9245 27.3936C84.4835 27.9918 85.1308 28.4675 85.8664 28.8206C86.6019 29.1638 87.3866 29.3355 88.2202 29.3355C89.1127 29.3355 89.9414 29.1393 90.7064 28.747C91.4812 28.3547 92.1432 27.8349 92.6924 27.1876L96.3114 29.1589C95.3895 30.4339 94.2273 31.4588 92.8248 32.2336C91.4224 33.0084 89.8875 33.3958 88.2202 33.3958Z" fill="#DB573B"/>
<path d="M104.734 33.3958C103.381 33.3958 102.145 33.0476 101.027 32.3513C99.9189 31.655 99.0313 30.7232 98.3644 29.5561C97.7073 28.3792 97.3787 27.0797 97.3787 25.6576C97.3787 24.5788 97.57 23.5735 97.9524 22.6418C98.3349 21.7003 98.8596 20.8765 99.5266 20.1703C100.203 19.4544 100.988 18.8953 101.88 18.4932C102.773 18.0911 103.724 17.89 104.734 17.89C106.088 17.89 107.319 18.2382 108.427 18.9346C109.545 19.6309 110.433 20.5675 111.09 21.7444C111.757 22.9213 112.09 24.2257 112.09 25.6576C112.09 26.7267 111.899 27.727 111.516 28.6588C111.134 29.5905 110.604 30.4143 109.927 31.1303C109.261 31.8364 108.481 32.3905 107.588 32.7926C106.706 33.1948 105.754 33.3958 104.734 33.3958ZM104.734 29.3355C105.362 29.3355 105.926 29.1688 106.426 28.8353C106.926 28.492 107.319 28.0409 107.603 27.4818C107.888 26.9228 108.03 26.3147 108.03 25.6576C108.03 24.9809 107.878 24.363 107.574 23.804C107.279 23.2352 106.882 22.784 106.382 22.4506C105.882 22.1171 105.333 21.9504 104.734 21.9504C104.117 21.9504 103.557 22.122 103.057 22.4653C102.557 22.8085 102.16 23.2597 101.866 23.8187C101.581 24.3778 101.439 24.9907 101.439 25.6576C101.439 26.354 101.586 26.9817 101.88 27.5407C102.184 28.0899 102.587 28.5264 103.087 28.85C103.587 29.1737 104.136 29.3355 104.734 29.3355Z" fill="#DB573B"/>
<path d="M113.764 33.0133V18.302H117.824V19.5083C118.246 19.1258 118.678 18.8169 119.119 18.5815C119.57 18.3363 120.056 18.2137 120.576 18.2137C121.507 18.2137 122.38 18.3951 123.194 18.758C124.018 19.1209 124.739 19.6358 125.357 20.3027C125.984 19.626 126.705 19.1111 127.519 18.758C128.343 18.3951 129.221 18.2137 130.153 18.2137C131.428 18.2137 132.58 18.5275 133.61 19.1552C134.64 19.7829 135.454 20.6215 136.052 21.6709C136.66 22.7203 136.964 23.8825 136.964 25.1575V33.0133H132.904V25.1575C132.904 24.618 132.781 24.1326 132.536 23.701C132.3 23.2695 131.977 22.9262 131.565 22.6712C131.153 22.4064 130.682 22.274 130.153 22.274C129.633 22.274 129.162 22.4064 128.74 22.6712C128.328 22.9262 128 23.2695 127.755 23.701C127.509 24.1326 127.387 24.618 127.387 25.1575V33.0133H123.327V25.1575C123.327 24.618 123.204 24.1326 122.959 23.701C122.723 23.2695 122.395 22.9262 121.973 22.6712C121.551 22.4064 121.086 22.274 120.576 22.274C120.066 22.274 119.6 22.4064 119.178 22.6712C118.756 22.936 118.423 23.2891 118.178 23.7305C117.942 24.162 117.824 24.6475 117.824 25.1869V33.0133H113.764Z" fill="#DB573B"/>
<path d="M139.365 33.0133V18.302H143.426V19.5083C143.847 19.1258 144.279 18.8169 144.72 18.5815C145.171 18.3363 145.657 18.2137 146.177 18.2137C147.108 18.2137 147.981 18.3951 148.795 18.758C149.619 19.1209 150.34 19.6358 150.958 20.3027C151.586 19.626 152.306 19.1111 153.12 18.758C153.944 18.3951 154.822 18.2137 155.754 18.2137C157.029 18.2137 158.181 18.5275 159.211 19.1552C160.241 19.7829 161.055 20.6215 161.653 21.6709C162.261 22.7203 162.565 23.8825 162.565 25.1575V33.0133H158.505V25.1575C158.505 24.618 158.382 24.1326 158.137 23.701C157.902 23.2695 157.578 22.9262 157.166 22.6712C156.754 22.4064 156.283 22.274 155.754 22.274C155.234 22.274 154.763 22.4064 154.341 22.6712C153.93 22.9262 153.601 23.2695 153.356 23.701C153.111 24.1326 152.988 24.618 152.988 25.1575V33.0133H148.928V25.1575C148.928 24.618 148.805 24.1326 148.56 23.701C148.325 23.2695 147.996 22.9262 147.574 22.6712C147.153 22.4064 146.687 22.274 146.177 22.274C145.667 22.274 145.201 22.4064 144.779 22.6712C144.357 22.936 144.024 23.2891 143.779 23.7305C143.543 24.162 143.426 24.6475 143.426 25.1869V33.0133H139.365Z" fill="#DB573B"/>
<path d="M169.954 33.2781C169.199 33.2193 168.473 33.0624 167.776 32.8074C167.08 32.5426 166.457 32.1895 165.908 31.7481C165.369 31.297 164.947 30.7576 164.643 30.1299L168.056 28.6588C168.164 28.8157 168.326 28.9873 168.541 29.1737C168.757 29.3502 169.017 29.5071 169.321 29.6444C169.635 29.7817 169.998 29.8504 170.41 29.8504C170.714 29.8504 171.008 29.816 171.292 29.7474C171.577 29.6689 171.807 29.5463 171.984 29.3796C172.16 29.2031 172.249 28.9726 172.249 28.6882C172.249 28.3743 172.136 28.1341 171.91 27.9673C171.685 27.8006 171.41 27.678 171.086 27.5995C170.773 27.5113 170.469 27.4377 170.174 27.3789C169.272 27.2219 168.419 26.9424 167.615 26.5403C166.82 26.1284 166.173 25.5988 165.673 24.9515C165.173 24.3042 164.922 23.5294 164.922 22.6271C164.922 21.6365 165.177 20.7833 165.687 20.0673C166.207 19.3416 166.884 18.7825 167.718 18.3902C168.561 17.9979 169.468 17.8018 170.439 17.8018C171.587 17.8018 172.651 18.0421 173.632 18.5226C174.612 19.0032 175.402 19.6799 176 20.5528L172.793 22.4506C172.665 22.2642 172.499 22.0877 172.293 21.921C172.097 21.7444 171.866 21.5973 171.601 21.4796C171.346 21.3521 171.072 21.2786 170.778 21.2589C170.395 21.2295 170.047 21.254 169.733 21.3325C169.419 21.4012 169.169 21.5336 168.983 21.7297C168.806 21.9259 168.718 22.1907 168.718 22.5241C168.718 22.8478 168.86 23.0881 169.145 23.245C169.429 23.3921 169.758 23.5049 170.13 23.5833C170.503 23.652 170.831 23.7354 171.116 23.8334C171.969 24.108 172.768 24.4611 173.514 24.8927C174.269 25.3144 174.877 25.8342 175.338 26.4521C175.799 27.0699 176.015 27.7957 175.985 28.6293C175.985 29.6003 175.696 30.4535 175.117 31.1891C174.539 31.9149 173.788 32.469 172.867 32.8515C171.954 33.2242 170.983 33.3664 169.954 33.2781Z" fill="#DB573B"/>
</svg>
