<svg width="98" height="325" viewBox="0 0 98 325" fill="none" xmlns="http://www.w3.org/2000/svg">
<path d="M-306 -39H-302V-35H-306V-39Z" fill="#E5E7EB"/>
<path d="M-286 -39H-282V-35H-286V-39Z" fill="#E5E7EB"/>
<path d="M-266 -39H-262V-35H-266V-39Z" fill="#E5E7EB"/>
<path d="M-246 -39H-242V-35H-246V-39Z" fill="#E5E7EB"/>
<path d="M-226 -39H-222V-35H-226V-39Z" fill="#E5E7EB"/>
<path d="M-206 -39H-202V-35H-206V-39Z" fill="#E5E7EB"/>
<path d="M-186 -39H-182V-35H-186V-39Z" fill="#E5E7EB"/>
<path d="M-166 -39H-162V-35H-166V-39Z" fill="#E5E7EB"/>
<path d="M-146 -39H-142V-35H-146V-39Z" fill="#E5E7EB"/>
<path d="M-126 -39H-122V-35H-126V-39Z" fill="#E5E7EB"/>
<path d="M-106 -39H-102V-35H-106V-39Z" fill="#E5E7EB"/>
<path d="M-86 -39H-82V-35H-86V-39Z" fill="#E5E7EB"/>
<path d="M-66 -39H-62V-35H-66V-39Z" fill="#E5E7EB"/>
<path d="M-46 -39H-42V-35H-46V-39Z" fill="#E5E7EB"/>
<path d="M-26 -39H-22V-35H-26V-39Z" fill="#E5E7EB"/>
<path d="M-6 -39H-2V-35H-6V-39Z" fill="#E5E7EB"/>
<path d="M14 -39H18V-35H14V-39Z" fill="#E5E7EB"/>
<path d="M34 -39H38V-35H34V-39Z" fill="#E5E7EB"/>
<path d="M54 -39H58V-35H54V-39Z" fill="#E5E7EB"/>
<path d="M74 -39H78V-35H74V-39Z" fill="#E5E7EB"/>
<path d="M94 -39H98V-35H94V-39Z" fill="#E5E7EB"/>
<path d="M-306 -19H-302V-15H-306V-19Z" fill="#E5E7EB"/>
<path d="M-286 -19H-282V-15H-286V-19Z" fill="#E5E7EB"/>
<path d="M-266 -19H-262V-15H-266V-19Z" fill="#E5E7EB"/>
<path d="M-246 -19H-242V-15H-246V-19Z" fill="#E5E7EB"/>
<path d="M-226 -19H-222V-15H-226V-19Z" fill="#E5E7EB"/>
<path d="M-206 -19H-202V-15H-206V-19Z" fill="#E5E7EB"/>
<path d="M-186 -19H-182V-15H-186V-19Z" fill="#E5E7EB"/>
<path d="M-166 -19H-162V-15H-166V-19Z" fill="#E5E7EB"/>
<path d="M-146 -19H-142V-15H-146V-19Z" fill="#E5E7EB"/>
<path d="M-126 -19H-122V-15H-126V-19Z" fill="#E5E7EB"/>
<path d="M-106 -19H-102V-15H-106V-19Z" fill="#E5E7EB"/>
<path d="M-86 -19H-82V-15H-86V-19Z" fill="#E5E7EB"/>
<path d="M-66 -19H-62V-15H-66V-19Z" fill="#E5E7EB"/>
<path d="M-46 -19H-42V-15H-46V-19Z" fill="#E5E7EB"/>
<path d="M-26 -19H-22V-15H-26V-19Z" fill="#E5E7EB"/>
<path d="M-6 -19H-2V-15H-6V-19Z" fill="#E5E7EB"/>
<path d="M14 -19H18V-15H14V-19Z" fill="#E5E7EB"/>
<path d="M34 -19H38V-15H34V-19Z" fill="#E5E7EB"/>
<path d="M54 -19H58V-15H54V-19Z" fill="#E5E7EB"/>
<path d="M74 -19H78V-15H74V-19Z" fill="#E5E7EB"/>
<path d="M94 -19H98V-15H94V-19Z" fill="#E5E7EB"/>
<path d="M-306 1H-302V5H-306V1Z" fill="#E5E7EB"/>
<path d="M-286 1H-282V5H-286V1Z" fill="#E5E7EB"/>
<path d="M-266 1H-262V5H-266V1Z" fill="#E5E7EB"/>
<path d="M-246 1H-242V5H-246V1Z" fill="#E5E7EB"/>
<path d="M-226 1H-222V5H-226V1Z" fill="#E5E7EB"/>
<path d="M-206 1H-202V5H-206V1Z" fill="#E5E7EB"/>
<path d="M-186 1H-182V5H-186V1Z" fill="#E5E7EB"/>
<path d="M-166 1H-162V5H-166V1Z" fill="#E5E7EB"/>
<path d="M-146 1H-142V5H-146V1Z" fill="#E5E7EB"/>
<path d="M-126 1H-122V5H-126V1Z" fill="#E5E7EB"/>
<path d="M-106 1H-102V5H-106V1Z" fill="#E5E7EB"/>
<path d="M-86 1H-82V5H-86V1Z" fill="#E5E7EB"/>
<path d="M-66 1H-62V5H-66V1Z" fill="#E5E7EB"/>
<path d="M-46 1H-42V5H-46V1Z" fill="#E5E7EB"/>
<path d="M-26 1H-22V5H-26V1Z" fill="#E5E7EB"/>
<path d="M-6 1H-2V5H-6V1Z" fill="#E5E7EB"/>
<path d="M14 1H18V5H14V1Z" fill="#E5E7EB"/>
<path d="M34 1H38V5H34V1Z" fill="#E5E7EB"/>
<path d="M54 1H58V5H54V1Z" fill="#E5E7EB"/>
<path d="M74 1H78V5H74V1Z" fill="#E5E7EB"/>
<path d="M94 1H98V5H94V1Z" fill="#E5E7EB"/>
<path d="M-306 21H-302V25H-306V21Z" fill="#E5E7EB"/>
<path d="M-286 21H-282V25H-286V21Z" fill="#E5E7EB"/>
<path d="M-266 21H-262V25H-266V21Z" fill="#E5E7EB"/>
<path d="M-246 21H-242V25H-246V21Z" fill="#E5E7EB"/>
<path d="M-226 21H-222V25H-226V21Z" fill="#E5E7EB"/>
<path d="M-206 21H-202V25H-206V21Z" fill="#E5E7EB"/>
<path d="M-186 21H-182V25H-186V21Z" fill="#E5E7EB"/>
<path d="M-166 21H-162V25H-166V21Z" fill="#E5E7EB"/>
<path d="M-146 21H-142V25H-146V21Z" fill="#E5E7EB"/>
<path d="M-126 21H-122V25H-126V21Z" fill="#E5E7EB"/>
<path d="M-106 21H-102V25H-106V21Z" fill="#E5E7EB"/>
<path d="M-86 21H-82V25H-86V21Z" fill="#E5E7EB"/>
<path d="M-66 21H-62V25H-66V21Z" fill="#E5E7EB"/>
<path d="M-46 21H-42V25H-46V21Z" fill="#E5E7EB"/>
<path d="M-26 21H-22V25H-26V21Z" fill="#E5E7EB"/>
<path d="M-6 21H-2V25H-6V21Z" fill="#E5E7EB"/>
<path d="M14 21H18V25H14V21Z" fill="#E5E7EB"/>
<path d="M34 21H38V25H34V21Z" fill="#E5E7EB"/>
<path d="M54 21H58V25H54V21Z" fill="#E5E7EB"/>
<path d="M74 21H78V25H74V21Z" fill="#E5E7EB"/>
<path d="M94 21H98V25H94V21Z" fill="#E5E7EB"/>
<path d="M-306 41H-302V45H-306V41Z" fill="#E5E7EB"/>
<path d="M-286 41H-282V45H-286V41Z" fill="#E5E7EB"/>
<path d="M-266 41H-262V45H-266V41Z" fill="#E5E7EB"/>
<path d="M-246 41H-242V45H-246V41Z" fill="#E5E7EB"/>
<path d="M-226 41H-222V45H-226V41Z" fill="#E5E7EB"/>
<path d="M-206 41H-202V45H-206V41Z" fill="#E5E7EB"/>
<path d="M-186 41H-182V45H-186V41Z" fill="#E5E7EB"/>
<path d="M-166 41H-162V45H-166V41Z" fill="#E5E7EB"/>
<path d="M-146 41H-142V45H-146V41Z" fill="#E5E7EB"/>
<path d="M-126 41H-122V45H-126V41Z" fill="#E5E7EB"/>
<path d="M-106 41H-102V45H-106V41Z" fill="#E5E7EB"/>
<path d="M-86 41H-82V45H-86V41Z" fill="#E5E7EB"/>
<path d="M-66 41H-62V45H-66V41Z" fill="#E5E7EB"/>
<path d="M-46 41H-42V45H-46V41Z" fill="#E5E7EB"/>
<path d="M-26 41H-22V45H-26V41Z" fill="#E5E7EB"/>
<path d="M-6 41H-2V45H-6V41Z" fill="#E5E7EB"/>
<path d="M14 41H18V45H14V41Z" fill="#E5E7EB"/>
<path d="M34 41H38V45H34V41Z" fill="#E5E7EB"/>
<path d="M54 41H58V45H54V41Z" fill="#E5E7EB"/>
<path d="M74 41H78V45H74V41Z" fill="#E5E7EB"/>
<path d="M94 41H98V45H94V41Z" fill="#E5E7EB"/>
<path d="M-306 61H-302V65H-306V61Z" fill="#E5E7EB"/>
<path d="M-286 61H-282V65H-286V61Z" fill="#E5E7EB"/>
<path d="M-266 61H-262V65H-266V61Z" fill="#E5E7EB"/>
<path d="M-246 61H-242V65H-246V61Z" fill="#E5E7EB"/>
<path d="M-226 61H-222V65H-226V61Z" fill="#E5E7EB"/>
<path d="M-206 61H-202V65H-206V61Z" fill="#E5E7EB"/>
<path d="M-186 61H-182V65H-186V61Z" fill="#E5E7EB"/>
<path d="M-166 61H-162V65H-166V61Z" fill="#E5E7EB"/>
<path d="M-146 61H-142V65H-146V61Z" fill="#E5E7EB"/>
<path d="M-126 61H-122V65H-126V61Z" fill="#E5E7EB"/>
<path d="M-106 61H-102V65H-106V61Z" fill="#E5E7EB"/>
<path d="M-86 61H-82V65H-86V61Z" fill="#E5E7EB"/>
<path d="M-66 61H-62V65H-66V61Z" fill="#E5E7EB"/>
<path d="M-46 61H-42V65H-46V61Z" fill="#E5E7EB"/>
<path d="M-26 61H-22V65H-26V61Z" fill="#E5E7EB"/>
<path d="M-6 61H-2V65H-6V61Z" fill="#E5E7EB"/>
<path d="M14 61H18V65H14V61Z" fill="#E5E7EB"/>
<path d="M34 61H38V65H34V61Z" fill="#E5E7EB"/>
<path d="M54 61H58V65H54V61Z" fill="#E5E7EB"/>
<path d="M74 61H78V65H74V61Z" fill="#E5E7EB"/>
<path d="M94 61H98V65H94V61Z" fill="#E5E7EB"/>
<path d="M-306 81H-302V85H-306V81Z" fill="#E5E7EB"/>
<path d="M-286 81H-282V85H-286V81Z" fill="#E5E7EB"/>
<path d="M-266 81H-262V85H-266V81Z" fill="#E5E7EB"/>
<path d="M-246 81H-242V85H-246V81Z" fill="#E5E7EB"/>
<path d="M-226 81H-222V85H-226V81Z" fill="#E5E7EB"/>
<path d="M-206 81H-202V85H-206V81Z" fill="#E5E7EB"/>
<path d="M-186 81H-182V85H-186V81Z" fill="#E5E7EB"/>
<path d="M-166 81H-162V85H-166V81Z" fill="#E5E7EB"/>
<path d="M-146 81H-142V85H-146V81Z" fill="#E5E7EB"/>
<path d="M-126 81H-122V85H-126V81Z" fill="#E5E7EB"/>
<path d="M-106 81H-102V85H-106V81Z" fill="#E5E7EB"/>
<path d="M-86 81H-82V85H-86V81Z" fill="#E5E7EB"/>
<path d="M-66 81H-62V85H-66V81Z" fill="#E5E7EB"/>
<path d="M-46 81H-42V85H-46V81Z" fill="#E5E7EB"/>
<path d="M-26 81H-22V85H-26V81Z" fill="#E5E7EB"/>
<path d="M-6 81H-2V85H-6V81Z" fill="#E5E7EB"/>
<path d="M14 81H18V85H14V81Z" fill="#E5E7EB"/>
<path d="M34 81H38V85H34V81Z" fill="#E5E7EB"/>
<path d="M54 81H58V85H54V81Z" fill="#E5E7EB"/>
<path d="M74 81H78V85H74V81Z" fill="#E5E7EB"/>
<path d="M94 81H98V85H94V81Z" fill="#E5E7EB"/>
<path d="M-306 101H-302V105H-306V101Z" fill="#E5E7EB"/>
<path d="M-286 101H-282V105H-286V101Z" fill="#E5E7EB"/>
<path d="M-266 101H-262V105H-266V101Z" fill="#E5E7EB"/>
<path d="M-246 101H-242V105H-246V101Z" fill="#E5E7EB"/>
<path d="M-226 101H-222V105H-226V101Z" fill="#E5E7EB"/>
<path d="M-206 101H-202V105H-206V101Z" fill="#E5E7EB"/>
<path d="M-186 101H-182V105H-186V101Z" fill="#E5E7EB"/>
<path d="M-166 101H-162V105H-166V101Z" fill="#E5E7EB"/>
<path d="M-146 101H-142V105H-146V101Z" fill="#E5E7EB"/>
<path d="M-126 101H-122V105H-126V101Z" fill="#E5E7EB"/>
<path d="M-106 101H-102V105H-106V101Z" fill="#E5E7EB"/>
<path d="M-86 101H-82V105H-86V101Z" fill="#E5E7EB"/>
<path d="M-66 101H-62V105H-66V101Z" fill="#E5E7EB"/>
<path d="M-46 101H-42V105H-46V101Z" fill="#E5E7EB"/>
<path d="M-26 101H-22V105H-26V101Z" fill="#E5E7EB"/>
<path d="M-6 101H-2V105H-6V101Z" fill="#E5E7EB"/>
<path d="M14 101H18V105H14V101Z" fill="#E5E7EB"/>
<path d="M34 101H38V105H34V101Z" fill="#E5E7EB"/>
<path d="M54 101H58V105H54V101Z" fill="#E5E7EB"/>
<path d="M74 101H78V105H74V101Z" fill="#E5E7EB"/>
<path d="M94 101H98V105H94V101Z" fill="#E5E7EB"/>
<path d="M-306 121H-302V125H-306V121Z" fill="#E5E7EB"/>
<path d="M-286 121H-282V125H-286V121Z" fill="#E5E7EB"/>
<path d="M-266 121H-262V125H-266V121Z" fill="#E5E7EB"/>
<path d="M-246 121H-242V125H-246V121Z" fill="#E5E7EB"/>
<path d="M-226 121H-222V125H-226V121Z" fill="#E5E7EB"/>
<path d="M-206 121H-202V125H-206V121Z" fill="#E5E7EB"/>
<path d="M-186 121H-182V125H-186V121Z" fill="#E5E7EB"/>
<path d="M-166 121H-162V125H-166V121Z" fill="#E5E7EB"/>
<path d="M-146 121H-142V125H-146V121Z" fill="#E5E7EB"/>
<path d="M-126 121H-122V125H-126V121Z" fill="#E5E7EB"/>
<path d="M-106 121H-102V125H-106V121Z" fill="#E5E7EB"/>
<path d="M-86 121H-82V125H-86V121Z" fill="#E5E7EB"/>
<path d="M-66 121H-62V125H-66V121Z" fill="#E5E7EB"/>
<path d="M-46 121H-42V125H-46V121Z" fill="#E5E7EB"/>
<path d="M-26 121H-22V125H-26V121Z" fill="#E5E7EB"/>
<path d="M-6 121H-2V125H-6V121Z" fill="#E5E7EB"/>
<path d="M14 121H18V125H14V121Z" fill="#E5E7EB"/>
<path d="M34 121H38V125H34V121Z" fill="#E5E7EB"/>
<path d="M54 121H58V125H54V121Z" fill="#E5E7EB"/>
<path d="M74 121H78V125H74V121Z" fill="#E5E7EB"/>
<path d="M94 121H98V125H94V121Z" fill="#E5E7EB"/>
<path d="M-306 141H-302V145H-306V141Z" fill="#E5E7EB"/>
<path d="M-286 141H-282V145H-286V141Z" fill="#E5E7EB"/>
<path d="M-266 141H-262V145H-266V141Z" fill="#E5E7EB"/>
<path d="M-246 141H-242V145H-246V141Z" fill="#E5E7EB"/>
<path d="M-226 141H-222V145H-226V141Z" fill="#E5E7EB"/>
<path d="M-206 141H-202V145H-206V141Z" fill="#E5E7EB"/>
<path d="M-186 141H-182V145H-186V141Z" fill="#E5E7EB"/>
<path d="M-166 141H-162V145H-166V141Z" fill="#E5E7EB"/>
<path d="M-146 141H-142V145H-146V141Z" fill="#E5E7EB"/>
<path d="M-126 141H-122V145H-126V141Z" fill="#E5E7EB"/>
<path d="M-106 141H-102V145H-106V141Z" fill="#E5E7EB"/>
<path d="M-86 141H-82V145H-86V141Z" fill="#E5E7EB"/>
<path d="M-66 141H-62V145H-66V141Z" fill="#E5E7EB"/>
<path d="M-46 141H-42V145H-46V141Z" fill="#E5E7EB"/>
<path d="M-26 141H-22V145H-26V141Z" fill="#E5E7EB"/>
<path d="M-6 141H-2V145H-6V141Z" fill="#E5E7EB"/>
<path d="M14 141H18V145H14V141Z" fill="#E5E7EB"/>
<path d="M34 141H38V145H34V141Z" fill="#E5E7EB"/>
<path d="M54 141H58V145H54V141Z" fill="#E5E7EB"/>
<path d="M74 141H78V145H74V141Z" fill="#E5E7EB"/>
<path d="M94 141H98V145H94V141Z" fill="#E5E7EB"/>
<path d="M-306 161H-302V165H-306V161Z" fill="#E5E7EB"/>
<path d="M-286 161H-282V165H-286V161Z" fill="#E5E7EB"/>
<path d="M-266 161H-262V165H-266V161Z" fill="#E5E7EB"/>
<path d="M-246 161H-242V165H-246V161Z" fill="#E5E7EB"/>
<path d="M-226 161H-222V165H-226V161Z" fill="#E5E7EB"/>
<path d="M-206 161H-202V165H-206V161Z" fill="#E5E7EB"/>
<path d="M-186 161H-182V165H-186V161Z" fill="#E5E7EB"/>
<path d="M-166 161H-162V165H-166V161Z" fill="#E5E7EB"/>
<path d="M-146 161H-142V165H-146V161Z" fill="#E5E7EB"/>
<path d="M-126 161H-122V165H-126V161Z" fill="#E5E7EB"/>
<path d="M-106 161H-102V165H-106V161Z" fill="#E5E7EB"/>
<path d="M-86 161H-82V165H-86V161Z" fill="#E5E7EB"/>
<path d="M-66 161H-62V165H-66V161Z" fill="#E5E7EB"/>
<path d="M-46 161H-42V165H-46V161Z" fill="#E5E7EB"/>
<path d="M-26 161H-22V165H-26V161Z" fill="#E5E7EB"/>
<path d="M-6 161H-2V165H-6V161Z" fill="#E5E7EB"/>
<path d="M14 161H18V165H14V161Z" fill="#E5E7EB"/>
<path d="M34 161H38V165H34V161Z" fill="#E5E7EB"/>
<path d="M54 161H58V165H54V161Z" fill="#E5E7EB"/>
<path d="M74 161H78V165H74V161Z" fill="#E5E7EB"/>
<path d="M94 161H98V165H94V161Z" fill="#E5E7EB"/>
<path d="M-306 181H-302V185H-306V181Z" fill="#E5E7EB"/>
<path d="M-286 181H-282V185H-286V181Z" fill="#E5E7EB"/>
<path d="M-266 181H-262V185H-266V181Z" fill="#E5E7EB"/>
<path d="M-246 181H-242V185H-246V181Z" fill="#E5E7EB"/>
<path d="M-226 181H-222V185H-226V181Z" fill="#E5E7EB"/>
<path d="M-206 181H-202V185H-206V181Z" fill="#E5E7EB"/>
<path d="M-186 181H-182V185H-186V181Z" fill="#E5E7EB"/>
<path d="M-166 181H-162V185H-166V181Z" fill="#E5E7EB"/>
<path d="M-146 181H-142V185H-146V181Z" fill="#E5E7EB"/>
<path d="M-126 181H-122V185H-126V181Z" fill="#E5E7EB"/>
<path d="M-106 181H-102V185H-106V181Z" fill="#E5E7EB"/>
<path d="M-86 181H-82V185H-86V181Z" fill="#E5E7EB"/>
<path d="M-66 181H-62V185H-66V181Z" fill="#E5E7EB"/>
<path d="M-46 181H-42V185H-46V181Z" fill="#E5E7EB"/>
<path d="M-26 181H-22V185H-26V181Z" fill="#E5E7EB"/>
<path d="M-6 181H-2V185H-6V181Z" fill="#E5E7EB"/>
<path d="M14 181H18V185H14V181Z" fill="#E5E7EB"/>
<path d="M34 181H38V185H34V181Z" fill="#E5E7EB"/>
<path d="M54 181H58V185H54V181Z" fill="#E5E7EB"/>
<path d="M74 181H78V185H74V181Z" fill="#E5E7EB"/>
<path d="M94 181H98V185H94V181Z" fill="#E5E7EB"/>
<path d="M-306 201H-302V205H-306V201Z" fill="#E5E7EB"/>
<path d="M-286 201H-282V205H-286V201Z" fill="#E5E7EB"/>
<path d="M-266 201H-262V205H-266V201Z" fill="#E5E7EB"/>
<path d="M-246 201H-242V205H-246V201Z" fill="#E5E7EB"/>
<path d="M-226 201H-222V205H-226V201Z" fill="#E5E7EB"/>
<path d="M-206 201H-202V205H-206V201Z" fill="#E5E7EB"/>
<path d="M-186 201H-182V205H-186V201Z" fill="#E5E7EB"/>
<path d="M-166 201H-162V205H-166V201Z" fill="#E5E7EB"/>
<path d="M-146 201H-142V205H-146V201Z" fill="#E5E7EB"/>
<path d="M-126 201H-122V205H-126V201Z" fill="#E5E7EB"/>
<path d="M-106 201H-102V205H-106V201Z" fill="#E5E7EB"/>
<path d="M-86 201H-82V205H-86V201Z" fill="#E5E7EB"/>
<path d="M-66 201H-62V205H-66V201Z" fill="#E5E7EB"/>
<path d="M-46 201H-42V205H-46V201Z" fill="#E5E7EB"/>
<path d="M-26 201H-22V205H-26V201Z" fill="#E5E7EB"/>
<path d="M-6 201H-2V205H-6V201Z" fill="#E5E7EB"/>
<path d="M14 201H18V205H14V201Z" fill="#E5E7EB"/>
<path d="M34 201H38V205H34V201Z" fill="#E5E7EB"/>
<path d="M54 201H58V205H54V201Z" fill="#E5E7EB"/>
<path d="M74 201H78V205H74V201Z" fill="#E5E7EB"/>
<path d="M94 201H98V205H94V201Z" fill="#E5E7EB"/>
<path d="M-306 221H-302V225H-306V221Z" fill="#E5E7EB"/>
<path d="M-286 221H-282V225H-286V221Z" fill="#E5E7EB"/>
<path d="M-266 221H-262V225H-266V221Z" fill="#E5E7EB"/>
<path d="M-246 221H-242V225H-246V221Z" fill="#E5E7EB"/>
<path d="M-226 221H-222V225H-226V221Z" fill="#E5E7EB"/>
<path d="M-206 221H-202V225H-206V221Z" fill="#E5E7EB"/>
<path d="M-186 221H-182V225H-186V221Z" fill="#E5E7EB"/>
<path d="M-166 221H-162V225H-166V221Z" fill="#E5E7EB"/>
<path d="M-146 221H-142V225H-146V221Z" fill="#E5E7EB"/>
<path d="M-126 221H-122V225H-126V221Z" fill="#E5E7EB"/>
<path d="M-106 221H-102V225H-106V221Z" fill="#E5E7EB"/>
<path d="M-86 221H-82V225H-86V221Z" fill="#E5E7EB"/>
<path d="M-66 221H-62V225H-66V221Z" fill="#E5E7EB"/>
<path d="M-46 221H-42V225H-46V221Z" fill="#E5E7EB"/>
<path d="M-26 221H-22V225H-26V221Z" fill="#E5E7EB"/>
<path d="M-6 221H-2V225H-6V221Z" fill="#E5E7EB"/>
<path d="M14 221H18V225H14V221Z" fill="#E5E7EB"/>
<path d="M34 221H38V225H34V221Z" fill="#E5E7EB"/>
<path d="M54 221H58V225H54V221Z" fill="#E5E7EB"/>
<path d="M74 221H78V225H74V221Z" fill="#E5E7EB"/>
<path d="M94 221H98V225H94V221Z" fill="#E5E7EB"/>
<path d="M-306 241H-302V245H-306V241Z" fill="#E5E7EB"/>
<path d="M-286 241H-282V245H-286V241Z" fill="#E5E7EB"/>
<path d="M-266 241H-262V245H-266V241Z" fill="#E5E7EB"/>
<path d="M-246 241H-242V245H-246V241Z" fill="#E5E7EB"/>
<path d="M-226 241H-222V245H-226V241Z" fill="#E5E7EB"/>
<path d="M-206 241H-202V245H-206V241Z" fill="#E5E7EB"/>
<path d="M-186 241H-182V245H-186V241Z" fill="#E5E7EB"/>
<path d="M-166 241H-162V245H-166V241Z" fill="#E5E7EB"/>
<path d="M-146 241H-142V245H-146V241Z" fill="#E5E7EB"/>
<path d="M-126 241H-122V245H-126V241Z" fill="#E5E7EB"/>
<path d="M-106 241H-102V245H-106V241Z" fill="#E5E7EB"/>
<path d="M-86 241H-82V245H-86V241Z" fill="#E5E7EB"/>
<path d="M-66 241H-62V245H-66V241Z" fill="#E5E7EB"/>
<path d="M-46 241H-42V245H-46V241Z" fill="#E5E7EB"/>
<path d="M-26 241H-22V245H-26V241Z" fill="#E5E7EB"/>
<path d="M-6 241H-2V245H-6V241Z" fill="#E5E7EB"/>
<path d="M14 241H18V245H14V241Z" fill="#E5E7EB"/>
<path d="M34 241H38V245H34V241Z" fill="#E5E7EB"/>
<path d="M54 241H58V245H54V241Z" fill="#E5E7EB"/>
<path d="M74 241H78V245H74V241Z" fill="#E5E7EB"/>
<path d="M94 241H98V245H94V241Z" fill="#E5E7EB"/>
<path d="M-306 261H-302V265H-306V261Z" fill="#E5E7EB"/>
<path d="M-286 261H-282V265H-286V261Z" fill="#E5E7EB"/>
<path d="M-266 261H-262V265H-266V261Z" fill="#E5E7EB"/>
<path d="M-246 261H-242V265H-246V261Z" fill="#E5E7EB"/>
<path d="M-226 261H-222V265H-226V261Z" fill="#E5E7EB"/>
<path d="M-206 261H-202V265H-206V261Z" fill="#E5E7EB"/>
<path d="M-186 261H-182V265H-186V261Z" fill="#E5E7EB"/>
<path d="M-166 261H-162V265H-166V261Z" fill="#E5E7EB"/>
<path d="M-146 261H-142V265H-146V261Z" fill="#E5E7EB"/>
<path d="M-126 261H-122V265H-126V261Z" fill="#E5E7EB"/>
<path d="M-106 261H-102V265H-106V261Z" fill="#E5E7EB"/>
<path d="M-86 261H-82V265H-86V261Z" fill="#E5E7EB"/>
<path d="M-66 261H-62V265H-66V261Z" fill="#E5E7EB"/>
<path d="M-46 261H-42V265H-46V261Z" fill="#E5E7EB"/>
<path d="M-26 261H-22V265H-26V261Z" fill="#E5E7EB"/>
<path d="M-6 261H-2V265H-6V261Z" fill="#E5E7EB"/>
<path d="M14 261H18V265H14V261Z" fill="#E5E7EB"/>
<path d="M34 261H38V265H34V261Z" fill="#E5E7EB"/>
<path d="M54 261H58V265H54V261Z" fill="#E5E7EB"/>
<path d="M74 261H78V265H74V261Z" fill="#E5E7EB"/>
<path d="M94 261H98V265H94V261Z" fill="#E5E7EB"/>
<path d="M-306 281H-302V285H-306V281Z" fill="#E5E7EB"/>
<path d="M-286 281H-282V285H-286V281Z" fill="#E5E7EB"/>
<path d="M-266 281H-262V285H-266V281Z" fill="#E5E7EB"/>
<path d="M-246 281H-242V285H-246V281Z" fill="#E5E7EB"/>
<path d="M-226 281H-222V285H-226V281Z" fill="#E5E7EB"/>
<path d="M-206 281H-202V285H-206V281Z" fill="#E5E7EB"/>
<path d="M-186 281H-182V285H-186V281Z" fill="#E5E7EB"/>
<path d="M-166 281H-162V285H-166V281Z" fill="#E5E7EB"/>
<path d="M-146 281H-142V285H-146V281Z" fill="#E5E7EB"/>
<path d="M-126 281H-122V285H-126V281Z" fill="#E5E7EB"/>
<path d="M-106 281H-102V285H-106V281Z" fill="#E5E7EB"/>
<path d="M-86 281H-82V285H-86V281Z" fill="#E5E7EB"/>
<path d="M-66 281H-62V285H-66V281Z" fill="#E5E7EB"/>
<path d="M-46 281H-42V285H-46V281Z" fill="#E5E7EB"/>
<path d="M-26 281H-22V285H-26V281Z" fill="#E5E7EB"/>
<path d="M-6 281H-2V285H-6V281Z" fill="#E5E7EB"/>
<path d="M14 281H18V285H14V281Z" fill="#E5E7EB"/>
<path d="M34 281H38V285H34V281Z" fill="#E5E7EB"/>
<path d="M54 281H58V285H54V281Z" fill="#E5E7EB"/>
<path d="M74 281H78V285H74V281Z" fill="#E5E7EB"/>
<path d="M94 281H98V285H94V281Z" fill="#E5E7EB"/>
<path d="M-306 301H-302V305H-306V301Z" fill="#E5E7EB"/>
<path d="M-286 301H-282V305H-286V301Z" fill="#E5E7EB"/>
<path d="M-266 301H-262V305H-266V301Z" fill="#E5E7EB"/>
<path d="M-246 301H-242V305H-246V301Z" fill="#E5E7EB"/>
<path d="M-226 301H-222V305H-226V301Z" fill="#E5E7EB"/>
<path d="M-206 301H-202V305H-206V301Z" fill="#E5E7EB"/>
<path d="M-186 301H-182V305H-186V301Z" fill="#E5E7EB"/>
<path d="M-166 301H-162V305H-166V301Z" fill="#E5E7EB"/>
<path d="M-146 301H-142V305H-146V301Z" fill="#E5E7EB"/>
<path d="M-126 301H-122V305H-126V301Z" fill="#E5E7EB"/>
<path d="M-106 301H-102V305H-106V301Z" fill="#E5E7EB"/>
<path d="M-86 301H-82V305H-86V301Z" fill="#E5E7EB"/>
<path d="M-66 301H-62V305H-66V301Z" fill="#E5E7EB"/>
<path d="M-46 301H-42V305H-46V301Z" fill="#E5E7EB"/>
<path d="M-26 301H-22V305H-26V301Z" fill="#E5E7EB"/>
<path d="M-6 301H-2V305H-6V301Z" fill="#E5E7EB"/>
<path d="M14 301H18V305H14V301Z" fill="#E5E7EB"/>
<path d="M34 301H38V305H34V301Z" fill="#E5E7EB"/>
<path d="M54 301H58V305H54V301Z" fill="#E5E7EB"/>
<path d="M74 301H78V305H74V301Z" fill="#E5E7EB"/>
<path d="M94 301H98V305H94V301Z" fill="#E5E7EB"/>
<path d="M-306 321H-302V325H-306V321Z" fill="#E5E7EB"/>
<path d="M-286 321H-282V325H-286V321Z" fill="#E5E7EB"/>
<path d="M-266 321H-262V325H-266V321Z" fill="#E5E7EB"/>
<path d="M-246 321H-242V325H-246V321Z" fill="#E5E7EB"/>
<path d="M-226 321H-222V325H-226V321Z" fill="#E5E7EB"/>
<path d="M-206 321H-202V325H-206V321Z" fill="#E5E7EB"/>
<path d="M-186 321H-182V325H-186V321Z" fill="#E5E7EB"/>
<path d="M-166 321H-162V325H-166V321Z" fill="#E5E7EB"/>
<path d="M-146 321H-142V325H-146V321Z" fill="#E5E7EB"/>
<path d="M-126 321H-122V325H-126V321Z" fill="#E5E7EB"/>
<path d="M-106 321H-102V325H-106V321Z" fill="#E5E7EB"/>
<path d="M-86 321H-82V325H-86V321Z" fill="#E5E7EB"/>
<path d="M-66 321H-62V325H-66V321Z" fill="#E5E7EB"/>
<path d="M-46 321H-42V325H-46V321Z" fill="#E5E7EB"/>
<path d="M-26 321H-22V325H-26V321Z" fill="#E5E7EB"/>
<path d="M-6 321H-2V325H-6V321Z" fill="#E5E7EB"/>
<path d="M14 321H18V325H14V321Z" fill="#E5E7EB"/>
<path d="M34 321H38V325H34V321Z" fill="#E5E7EB"/>
<path d="M54 321H58V325H54V321Z" fill="#E5E7EB"/>
<path d="M74 321H78V325H74V321Z" fill="#E5E7EB"/>
<path d="M94 321H98V325H94V321Z" fill="#E5E7EB"/>
<path d="M-306 341H-302V345H-306V341Z" fill="#E5E7EB"/>
<path d="M-286 341H-282V345H-286V341Z" fill="#E5E7EB"/>
<path d="M-266 341H-262V345H-266V341Z" fill="#E5E7EB"/>
<path d="M-246 341H-242V345H-246V341Z" fill="#E5E7EB"/>
<path d="M-226 341H-222V345H-226V341Z" fill="#E5E7EB"/>
<path d="M-206 341H-202V345H-206V341Z" fill="#E5E7EB"/>
<path d="M-186 341H-182V345H-186V341Z" fill="#E5E7EB"/>
<path d="M-166 341H-162V345H-166V341Z" fill="#E5E7EB"/>
<path d="M-146 341H-142V345H-146V341Z" fill="#E5E7EB"/>
<path d="M-126 341H-122V345H-126V341Z" fill="#E5E7EB"/>
<path d="M-106 341H-102V345H-106V341Z" fill="#E5E7EB"/>
<path d="M-86 341H-82V345H-86V341Z" fill="#E5E7EB"/>
<path d="M-66 341H-62V345H-66V341Z" fill="#E5E7EB"/>
<path d="M-46 341H-42V345H-46V341Z" fill="#E5E7EB"/>
<path d="M-26 341H-22V345H-26V341Z" fill="#E5E7EB"/>
<path d="M-6 341H-2V345H-6V341Z" fill="#E5E7EB"/>
<path d="M14 341H18V345H14V341Z" fill="#E5E7EB"/>
<path d="M34 341H38V345H34V341Z" fill="#E5E7EB"/>
<path d="M54 341H58V345H54V341Z" fill="#E5E7EB"/>
<path d="M74 341H78V345H74V341Z" fill="#E5E7EB"/>
<path d="M94 341H98V345H94V341Z" fill="#E5E7EB"/>
<path d="M-306 361H-302V365H-306V361Z" fill="#E5E7EB"/>
<path d="M-286 361H-282V365H-286V361Z" fill="#E5E7EB"/>
<path d="M-266 361H-262V365H-266V361Z" fill="#E5E7EB"/>
<path d="M-246 361H-242V365H-246V361Z" fill="#E5E7EB"/>
<path d="M-226 361H-222V365H-226V361Z" fill="#E5E7EB"/>
<path d="M-206 361H-202V365H-206V361Z" fill="#E5E7EB"/>
<path d="M-186 361H-182V365H-186V361Z" fill="#E5E7EB"/>
<path d="M-166 361H-162V365H-166V361Z" fill="#E5E7EB"/>
<path d="M-146 361H-142V365H-146V361Z" fill="#E5E7EB"/>
<path d="M-126 361H-122V365H-126V361Z" fill="#E5E7EB"/>
<path d="M-106 361H-102V365H-106V361Z" fill="#E5E7EB"/>
<path d="M-86 361H-82V365H-86V361Z" fill="#E5E7EB"/>
<path d="M-66 361H-62V365H-66V361Z" fill="#E5E7EB"/>
<path d="M-46 361H-42V365H-46V361Z" fill="#E5E7EB"/>
<path d="M-26 361H-22V365H-26V361Z" fill="#E5E7EB"/>
<path d="M-6 361H-2V365H-6V361Z" fill="#E5E7EB"/>
<path d="M14 361H18V365H14V361Z" fill="#E5E7EB"/>
<path d="M34 361H38V365H34V361Z" fill="#E5E7EB"/>
<path d="M54 361H58V365H54V361Z" fill="#E5E7EB"/>
<path d="M74 361H78V365H74V361Z" fill="#E5E7EB"/>
<path d="M94 361H98V365H94V361Z" fill="#E5E7EB"/>
</svg>
